<svg xmlns="http://www.w3.org/2000/svg" width="32" height="32" viewBox="0 0 150 150"><path d="M141.14,99.54c.05-.06.11-.11.16-.17l-.33-.13-.17-.29-40.22-16.46c-.24,0-.45.03-.66.09l-.07-.03-.23.15c-.46.19-.88.46-1.32.68-6,3-12.7,8.17-18.86,12.27l-4.46,2.86c-.36.2-.72.35-1.04.37l16.21-26.09-17.12-41.08-17.08,41.12,16.34,25.91h-.12s-25.5-16.46-25.5-16.46c-12.51,5.13-25.15,10.05-37.57,15.4-.87.37-1.99.74-2.88,1.27l-1.06.44.16.27c-.05.06-.11.11-.16.17l.33.13.17.29,40.22,16.46c.24,0,.45-.03.66-.09l.07.03.23-.15c.46-.19.88-.46,1.32-.68,5.99-3,12.69-8.17,18.85-12.26l4.47-2.87c.36-.2.72-.35,1.04-.37l-16.21,26.09,17.12,41.08,17.08-41.12-16.34-25.91h.12s25.5,16.46,25.5,16.46c12.51-5.13,25.15-10.05,37.57-15.4.87-.37,1.99-.74,2.88-1.27l1.06-.44-.16-.27Z" transform="translate(-5, -25)"/></svg>
